<?xml version="1.0" encoding="UTF-8" standalone="no"?>
<!-- Created with Inkscape (http://www.inkscape.org/) -->

<svg
   xmlns:dc="http://purl.org/dc/elements/1.1/"
   xmlns:cc="http://creativecommons.org/ns#"
   xmlns:rdf="http://www.w3.org/1999/02/22-rdf-syntax-ns#"
   xmlns:svg="http://www.w3.org/2000/svg"
   xmlns="http://www.w3.org/2000/svg"
   xmlns:sodipodi="http://sodipodi.sourceforge.net/DTD/sodipodi-0.dtd"
   xmlns:inkscape="http://www.inkscape.org/namespaces/inkscape"
   width="50"
   height="50"
   id="svg2"
   version="1.1"
   inkscape:version="0.48.4 r9939"
   sodipodi:docname="unlocked.svg">
  <defs
     id="defs4" />
  <sodipodi:namedview
     id="base"
     pagecolor="#ffffff"
     bordercolor="#666666"
     borderopacity="1.0"
     inkscape:pageopacity="0.0"
     inkscape:pageshadow="2"
     inkscape:zoom="5.6"
     inkscape:cx="35.084632"
     inkscape:cy="24.602978"
     inkscape:document-units="px"
     inkscape:current-layer="layer1"
     showgrid="false"
     inkscape:object-nodes="true"
     inkscape:snap-smooth-nodes="true"
     inkscape:snap-nodes="false"
     inkscape:window-width="1404"
     inkscape:window-height="780"
     inkscape:window-x="514"
     inkscape:window-y="57"
     inkscape:window-maximized="0" />
  <metadata
     id="metadata7">
    <rdf:RDF>
      <cc:Work
         rdf:about="">
        <dc:format>image/svg+xml</dc:format>
        <dc:type
           rdf:resource="http://purl.org/dc/dcmitype/StillImage" />
        <dc:title />
      </cc:Work>
    </rdf:RDF>
  </metadata>
  <g
     inkscape:label="Layer 1"
     inkscape:groupmode="layer"
     id="layer1"
     transform="translate(0,-1002.3622)">
    <path
       style="font-size:medium;font-style:normal;font-variant:normal;font-weight:normal;font-stretch:normal;text-indent:0;text-align:start;text-decoration:none;line-height:normal;letter-spacing:normal;word-spacing:normal;text-transform:none;direction:ltr;block-progression:tb;writing-mode:lr-tb;text-anchor:start;baseline-shift:baseline;color:#000000;fill:#4d4d4d;fill-opacity:1;stroke:none;stroke-width:7.999897;marker:none;visibility:visible;display:inline;overflow:visible;enable-background:accumulate;font-family:Sans;-inkscape-font-specification:Sans"
       d="m 30.797607,1005.1789 c -4.426624,-1.3391 -8.866424,-1.3272 -12.715041,-0.059 -3.848618,1.2681 -7.290723,4.0267 -8.5223435,8.0981 l 7.6573085,2.3164 c 0.339958,-1.1238 1.339668,-2.1636 3.370911,-2.8329 2.031214,-0.6693 4.918604,-0.7648 7.892784,0.1349 2.974179,0.8997 5.324459,2.5797 6.644138,4.2626 1.319651,1.683 1.575397,3.1025 1.235439,4.2263 l -1.158191,3.8287 7.657309,2.3164 1.158191,-3.8287 c 1.23162,-4.0714 -0.104259,-8.2754 -2.604684,-11.464 -2.500425,-3.1887 -6.189197,-5.6595 -10.615821,-6.9986 z"
       id="path3003"
       inkscape:connector-curvature="0"
       inkscape:transform-center-x="15.982731"
       inkscape:transform-center-y="-11.101071"
       sodipodi:nodetypes="ccccsscsccsccc" />
    <g
       id="g3802"
       transform="matrix(1.6542682,0,0,1.6542682,43.996762,-675.76956)"
       style="fill:#4d4d4d">
      <path
         id="path3780-8"
         transform="matrix(0.6044969,0,0,0.6044969,-26.595906,1014.5018)"
         style="fill:#4d4d4d;stroke:none"
         d="m 24.96875,24.3125 c -2.428416,0 -4.40625,1.977784 -4.40625,4.40625 0,1.65703 0.927316,3.062994 2.28125,3.8125 l -2.21875,7.75 8.8125,0 -2.25,-7.8125 c 1.291434,-0.766008 2.1875,-2.139686 2.1875,-3.75 0,-2.428466 -1.977834,-4.40625 -4.40625,-4.40625 z m -17.9687504,-2.905037 36.0000004,0 0,23.4093 -36.0000004,0 z"
         inkscape:connector-curvature="0" />
    </g>
  </g>
</svg>
