<?xml version="1.0" encoding="UTF-8" standalone="no"?>
<!-- Created with Inkscape (http://www.inkscape.org/) -->

<svg
   xmlns:dc="http://purl.org/dc/elements/1.1/"
   xmlns:cc="http://creativecommons.org/ns#"
   xmlns:rdf="http://www.w3.org/1999/02/22-rdf-syntax-ns#"
   xmlns:svg="http://www.w3.org/2000/svg"
   xmlns="http://www.w3.org/2000/svg"
   version="1.1"
   width="332"
   height="62"
   viewBox="0 0 332 62"
   id="svg2"
   xml:space="preserve"><metadata
     id="metadata44"><rdf:RDF><cc:Work
         rdf:about=""><dc:format>image/svg+xml</dc:format><dc:type
           rdf:resource="http://purl.org/dc/dcmitype/StillImage" /><dc:title></dc:title></cc:Work></rdf:RDF></metadata><defs
     id="defs42" /><path
     d="m 31,6 0,5 -5,0 0,5 -15,0 0,5 -5,0 0,5 -5,0 0,10 5,0 0,5 20,0 0,5 5,0 0,5 -5,0 0,5 -10,0 0,-5 -5,0 0,-5 -10,0 0,10 5,0 0,5 25,0 0,-5 5,0 0,-5 5,0 0,-10 -5,0 0,-5 -5,0 0,-5 5,0 0,-10 -5,0 0,-5 10,0 0,-10 z m -5,25 -5,0 0,5 -5,0 0,-5 -5,0 0,-5 5,0 0,-5 5,0 0,5 5,0 z m 30,-15 -15,0 0,5 5,0 0,25 10,0 0,-15 5,0 0,-5 -5,0 z m 5,0 0,10 10,0 0,-10 z m 25,20 -5,0 0,-10 5,0 0,-5 5,0 0,-5 -10,0 0,5 -5,0 0,5 -5,0 0,15 5,0 0,5 15,0 0,-5 -5,0 z m 20,-20 -10,0 0,5 -5,0 0,5 5,0 0,10 -5,0 0,5 5,0 0,5 15,0 0,-5 -5,0 z m 35,0 -15,0 0,5 5,0 0,5 5,0 0,10 -5,0 0,5 -5,0 0,-20 -5,0 0,-5 -10,0 0,5 5,0 0,40 10,0 0,-15 10,0 0,-5 5,0 0,-5 5,0 0,-15 -5,0 z m 40,5 -5,0 0,-5 -15,0 0,-5 5,0 0,-5 5,0 0,-5 -15,0 0,5 -5,0 0,40 10,0 0,-20 5,0 0,-5 5,0 0,25 15,0 0,-5 -5,0 z m 20,-5 -15,0 0,5 5,0 0,25 15,0 0,-5 -5,0 z m 5,-15 -10,0 0,10 10,0 z m 25,20 0,-5 -15,0 0,5 -5,0 0,5 -5,0 0,15 5,0 0,5 20,0 0,-10 -5,0 0,5 -5,0 0,-5 -5,0 0,-10 5,0 0,-5 5,0 0,5 10,0 0,-5 z m 35,-5 -20,0 0,5 -5,0 0,5 -5,0 0,15 5,0 0,5 20,0 0,-5 5,0 0,-5 5,0 0,-15 -5,0 z m -5,20 -5,0 0,5 -5,0 0,-5 -5,0 0,-10 5,0 0,-5 5,0 0,5 5,0 z m 25,-20 -15,0 0,5 5,0 0,25 10,0 0,-15 5,0 0,-5 -5,0 z m 5,0 0,10 10,0 0,-10 z m 35,0 -15,0 0,5 -5,0 0,5 -5,0 0,15 5,0 0,5 20,0 0,-10 -5,0 0,5 -10,0 0,-10 15,0 0,-5 5,0 0,-5 -5,0 z m -5,10 -5,0 0,-5 5,0 z"
     id="path4"
     style="stroke:#333333;stroke-width:2" /><linearGradient
     x1="205.9897"
     y1="30"
     x2="205.9897"
     y2="1.0005"
     id="XMLID_1_"
     gradientUnits="userSpaceOnUse"><stop
       id="stop7"
       style="stop-color:#76e500;stop-opacity:1"
       offset="0.05447471" /><stop
       id="stop9"
       style="stop-color:#78e100;stop-opacity:1"
       offset="0.1105" /><stop
       id="stop11"
       style="stop-color:#7bda00;stop-opacity:1"
       offset="0.23999999" /><stop
       id="stop13"
       style="stop-color:#7dd504;stop-opacity:1"
       offset="0.4138" /><stop
       id="stop15"
       style="stop-color:#7ed406;stop-opacity:1"
       offset="0.8132" /></linearGradient><path
     d="m 81,16 0,5 -5,0 0,5 -5,0 0,4 10,0 0,-4 5,0 0,-5 5,0 0,-5 z m -50,-5 -5,0 0,5 -15,0 0,5 -5,0 0,5 -5,0 0,4 10,0 0,-4 5,0 0,-5 5,0 0,5 5,0 0,4 10,0 0,-9 -5,0 0,-5 10,0 0,-10 -10,0 z m 30,5 0,10 10,0 0,-10 z m -5,0 -15,0 0,5 5,0 0,9 15,0 0,-4 -5,0 z m 40,5 -5,0 0,5 5,0 0,4 10,0 0,-14 -10,0 z m 80,-5 -15,0 0,-5 5,0 0,-5 5,0 0,-5 -15,0 0,5 -5,0 0,24 10,0 0,-4 5,0 0,-5 5,0 0,9 10,0 0,-9 -5,0 z m -35,0 -15,0 0,5 5,0 0,5 5,0 0,4 10,0 0,-9 -5,0 z m -20,0 -10,0 0,5 5,0 0,9 10,0 0,-9 -5,0 z m 85,-15 -10,0 0,10 10,0 z m 120,15 -15,0 0,5 -5,0 0,5 -5,0 0,4 25,0 0,-4 5,0 0,-5 -5,0 z m -5,10 -5,0 0,-5 5,0 z m -135,-5 5,0 0,9 10,0 0,-14 -15,0 z m 105,-5 0,10 10,0 0,-10 z m -60,5 0,-5 -15,0 0,5 -5,0 0,5 -5,0 0,4 10,0 0,-4 5,0 0,-5 5,0 0,5 10,0 0,-5 z m 35,-5 -20,0 0,5 -5,0 0,5 -5,0 0,4 10,0 0,-4 5,0 0,-5 5,0 0,5 5,0 0,4 10,0 0,-9 -5,0 z m 20,0 -15,0 0,5 5,0 0,9 15,0 0,-4 -5,0 z"
     id="path17"
     style="fill:url(#XMLID_1_)" /><linearGradient
     x1="203.4897"
     y1="61"
     x2="203.4897"
     y2="30"
     id="XMLID_2_"
     gradientUnits="userSpaceOnUse"><stop
       id="stop20"
       style="stop-color:#75cd10;stop-opacity:1"
       offset="0" /><stop
       id="stop22"
       style="stop-color:#75cd10;stop-opacity:1"
       offset="0.2568" /><stop
       id="stop24"
       style="stop-color:#74d110;stop-opacity:1"
       offset="0.2938" /><stop
       id="stop26"
       style="stop-color:#6ed908;stop-opacity:1"
       offset="0.4145" /><stop
       id="stop28"
       style="stop-color:#7bda00;stop-opacity:1"
       offset="0.537" /><stop
       id="stop30"
       style="stop-color:#7dd504;stop-opacity:1"
       offset="0.68940002" /><stop
       id="stop32"
       style="stop-color:#7ed406;stop-opacity:1"
       offset="0.92220002" /></linearGradient><path
     d="m 301,41 5,0 0,5 20,0 0,-10 -5,0 0,5 -10,0 0,-10 15,0 0,-1 -25,0 z m -215,-5 -5,0 0,-6 -10,0 0,11 5,0 0,5 15,0 0,-5 -5,0 z m 20,-6 -10,0 0,6 -5,0 0,5 5,0 0,5 15,0 0,-5 -5,0 z m -60,16 10,0 0,-15 5,0 0,-1 -15,0 z m 135,-16 -10,0 0,16 15,0 0,-5 -5,0 z m -145,6 -5,0 0,-5 5,0 0,-1 -10,0 0,1 -5,0 0,5 -5,0 0,-5 -5,0 0,-1 -10,0 0,6 5,0 0,5 20,0 0,5 5,0 0,5 -5,0 0,5 -10,0 0,-5 -5,0 0,-5 -10,0 0,10 5,0 0,5 25,0 0,-5 5,0 0,-5 5,0 0,-10 -5,0 z m 115,10 10,0 0,-16 -10,0 z m 125,0 10,0 0,-15 5,0 0,-1 -15,0 z m -140,-10 -5,0 0,5 -5,0 0,-11 -10,0 0,31 10,0 0,-15 10,0 0,-5 5,0 0,-5 5,0 0,-6 -10,0 z m 65,-6 -10,0 0,16 15,0 0,-5 -5,0 z m 60,6 -5,0 0,5 -5,0 0,-5 -5,0 0,-6 -10,0 0,11 5,0 0,5 20,0 0,-5 5,0 0,-5 5,0 0,-6 -10,0 z m -35,5 -5,0 0,-5 -5,0 0,-6 -10,0 0,11 5,0 0,5 20,0 0,-10 -5,0 z"
     id="path34"
     style="fill:url(#XMLID_2_)" /><path
     d="m 55,27 5,0 1,-1 -5,0 z m 1,-11 -15,0 0,5 1,-1 0,-3 13,0 z m -10,30 1,-1 0,-25 -1,1 z m 15,-30 0,10 1,-1 0,-8 8,0 1,-1 z m 230,0 0,10 1,-1 0,-8 8,0 1,-1 z m -5,0 -15,0 0,5 1,-1 0,-3 13,0 z m -10,30 1,-1 0,-25 -1,1 z m 9,-19 5,0 1,-1 -5,0 z m -258,-2 -1,1 0,5 -5,0 0,5 -5,0 -1,1 7,0 0,-5 5,0 z m 0,20 0,-5 -1,1 0,5 z m -6,-24 0,5 1,-1 0,-5 z m 9,16 5,0 1,-1 -5,0 z m 1,-16 -1,1 5,0 1,-1 z M 7,40 7,35 6,36 6,41 z m -5,-13 5,0 0,-5 5,0 0,-5 15,0 0,-5 5,0 0,-5 8,0 1,-1 -10,0 0,5 -5,0 0,5 -15,0 0,5 -5,0 0,5 -5,0 0,10 1,-1 z m 9,4 -1,1 5,0 1,-1 z m 20,20 -5,0 0,5 -10,0 -1,1 12,0 0,-5 5,0 0,-7 -1,1 z M 6,61 7,60 7,55 6,56 z m 5,-15 -10,0 0,10 1,-1 0,-8 8,0 z m 24,-4 5,0 1,-1 -5,0 z m -19,9 -5,0 -1,1 5,0 z m 66,-34 8,0 1,-1 -10,0 0,5 -5,0 0,5 -5,0 0,15 1,-1 0,-13 5,0 0,-5 5,0 z m -6,29 1,-1 0,-5 -1,1 z m 9,-4 5,0 1,-1 -5,0 z m 20,0 5,0 1,-1 -5,0 z m -19,-6 -5,0 -1,1 5,0 z m 10,0 -5,0 0,5 1,-1 0,-3 5,0 0,-12 -1,1 z m 10,-20 -10,0 0,5 -5,0 0,5 1,-1 0,-3 5,0 0,-5 8,0 z m -10,30 1,-1 0,-5 -1,1 z m 25,-30 -10,0 0,5 1,-1 0,-3 8,0 z m -5,45 1,-1 0,-40 -1,1 z m 10,-40 -5,0 -1,1 5,0 z m 1,-4 13,0 1,-1 -15,0 0,5 1,-1 z m 13,5 5,0 1,-1 -5,0 z m 41,-1 -5,0 -1,1 5,0 z m -1,21 5,0 1,-1 -5,0 z m -44,-6 -5,0 0,5 -5,0 -1,1 7,0 0,-5 5,0 0,-12 -1,1 z m 35,-35 -15,0 0,5 -5,0 0,40 1,-1 0,-38 5,0 0,-5 13,0 z m 5,15 -15,0 -1,1 15,0 z m -5,30 1,-1 0,-25 -1,1 z m 26,-44 8,0 1,-1 -10,0 0,10 1,-1 z m 4,14 -15,0 0,5 1,-1 0,-3 13,0 z m -10,30 1,-1 0,-25 -1,1 z m 9,-4 5,0 1,-1 -5,0 z m 17,-25 13,0 1,-1 -15,0 0,5 -5,0 0,5 -5,0 0,15 1,-1 0,-13 5,0 0,-5 5,0 z m 95,0 13,0 1,-1 -15,0 0,5 -5,0 0,5 -5,0 0,15 1,-1 0,-13 5,0 0,-5 5,0 z m -85,8 0,-5 -1,1 0,5 z m -16,21 1,-1 0,-5 -1,1 z m 36,-29 18,0 1,-1 -20,0 0,5 -5,0 0,5 -5,0 0,15 1,-1 0,-13 5,0 0,-5 5,0 z m -6,29 1,-1 0,-5 -1,1 z m -11,-24 5,0 1,-1 -5,0 z m -9,14 -5,0 -1,1 5,0 z m 36,-11 0,-5 -1,1 0,5 z m -6,11 -5,0 -1,1 5,0 z m -25,5 -5,0 -1,1 7,0 0,-5 3,0 1,-1 -5,0 z m 35,-5 -5,0 0,5 -5,0 -1,1 7,0 0,-5 5,0 0,-12 -1,1 z m 4,-14 5,0 1,-1 -5,0 z m 41,24 1,-1 0,-5 -1,1 z m 15,-5 -10,0 -1,1 12,0 0,-5 3,0 1,-1 -5,0 z m -5,-15 -1,1 7,0 0,-7 -1,1 0,5 z m 10,-5 -1,1 5,0 1,-1 z"
     id="path36"
     style="opacity:0.72000002;fill:#ffffff" /><path
     d="m 71,16 -1,1 0,8 -8,0 -1,1 10,0 z m -15,0 -1,1 0,10 1,-1 z m -9,4 -5,0 -1,1 5,0 z m 13,10 -5,0 0,15 -8,0 -1,1 10,0 0,-15 5,0 0,-5 -1,1 z m 241,-14 -1,1 0,8 -8,0 -1,1 10,0 z m -24,4 -5,0 0,0 -3,0 0,1 2,0 5,0 z m 9,-4 -1,1 0,10 1,-1 z m 4,14 -5,0 0,15 -8,0 -1,1 10,0 0,-15 5,0 0,-5 -1,1 z M 31,16 l 10,0 0,-10 -1,1 0,8 -10,0 0,7 1,-1 z m -20,10 5,0 0,-5 5,0 1,-1 -7,0 0,5 -5,0 0,7 1,-1 z m 4,6 0,5 1,-1 0,-5 z m 21,9 0,-5 -1,1 0,5 z m -25,10 0,-5 -1,1 0,5 z m 5,5 0,-5 -1,1 0,5 z m 5,-30 5,0 1,-1 -5,0 z m -14,9 -5,0 -1,1 5,0 z m 25,10 -5,0 -1,1 5,0 z M 7,55 2,55 1,56 6,56 z M 27,40 7,40 6,41 26,41 z m 4,-9 5,0 0,-10 -1,1 0,8 -5,0 0,7 1,-1 z m 9,19 -5,0 0,5 -5,0 0,5 -23,0 -1,1 25,0 0,-5 5,0 0,-5 5,0 0,-10 -1,1 z m 57,-25 -5,0 -1,1 5,0 z m 0,15 -5,0 -1,1 5,0 z m -20,0 -5,0 -1,1 5,0 z m 33,5 -13,0 -1,1 15,0 0,-5 -1,1 z m -4,-29 -1,1 0,25 1,-1 z m -16,29 -13,0 -1,1 15,0 0,-5 -1,1 z m -5,-8 0,5 1,-1 0,-5 z m 5,-17 -5,0 0,5 -5,0 0,12 1,-1 0,-10 5,0 0,-5 5,0 0,-5 -1,1 z m 51,-4 -1,1 0,5 1,-1 z m -10,10 5,0 1,-1 -5,0 0,-5 -5,0 -1,1 5,0 z m 14,9 -5,0 0,5 -5,0 0,5 -10,0 0,15 -8,0 -1,1 10,0 0,-15 10,0 0,-5 5,0 0,-5 5,0 0,-15 -1,1 z m -19,-14 -1,1 0,20 1,-1 z m -5,-5 -1,1 0,5 1,-1 z m -4,4 -5,0 -1,1 5,0 z m 44,-9 5,0 0,-5 5,0 0,-5 -1,1 0,3 -5,0 0,5 -5,0 0,7 1,-1 z m 11,9 -7,0 0,5 -5,0 0,20 -8,0 -1,1 10,0 0,-20 5,0 0,-5 5,0 z m 4,-4 -1,1 0,5 1,-1 z m 5,5 -1,1 0,20 1,-1 z m 4,24 -13,0 -1,1 15,0 0,-5 -1,1 z m 21,-44 -1,1 0,8 -8,0 -1,1 10,0 z m -14,19 -5,0 -1,1 5,0 z m 9,21 0,-25 -1,1 0,25 z m 4,4 -13,0 -1,1 15,0 0,-5 -1,1 z m 25,0 -18,0 -1,1 20,0 0,-10 -1,1 z m -9,-4 0,-5 -1,1 0,5 z m -9,-1 -5,0 -1,1 5,0 z m 113,5 -18,0 -1,1 20,0 0,-10 -1,1 z m -18,-5 -5,0 -1,1 5,0 z m -91,-14 5,0 0,-5 5,0 1,-1 -7,0 0,5 -5,0 0,12 1,-1 z m 15,-10 -1,1 0,5 1,-1 z m -5,10 10,0 0,-5 -1,1 0,3 -8,0 z m 16,14 -5,0 -1,1 5,0 z m 9,1 0,-5 -1,1 0,5 z m 5,-15 5,0 1,-1 -5,0 z m -10,0 5,0 0,-5 5,0 1,-1 -7,0 0,5 -5,0 0,12 1,-1 z m 24,9 -5,0 0,5 -5,0 0,5 -18,0 -1,1 20,0 0,-5 5,0 0,-5 5,0 0,-15 -1,1 z m -4,-19 -1,1 0,5 1,-1 z m 65,5 -1,1 0,3 -5,0 0,5 -15,0 0,12 1,-1 0,-10 15,0 0,-5 5,0 z m -5,-5 -1,1 0,5 1,-1 z m -10,5 5,0 1,-1 -7,0 0,7 1,-1 z"
     id="path38"
     style="opacity:0.37000002;fill:#666666" /></svg>