<?xml version="1.0" encoding="UTF-8" standalone="no"?>
<!-- Created with Inkscape (http://www.inkscape.org/) -->

<svg
   xmlns:dc="http://purl.org/dc/elements/1.1/"
   xmlns:cc="http://creativecommons.org/ns#"
   xmlns:rdf="http://www.w3.org/1999/02/22-rdf-syntax-ns#"
   xmlns:svg="http://www.w3.org/2000/svg"
   xmlns="http://www.w3.org/2000/svg"
   xmlns:sodipodi="http://sodipodi.sourceforge.net/DTD/sodipodi-0.dtd"
   xmlns:inkscape="http://www.inkscape.org/namespaces/inkscape"
   width="50"
   height="50"
   id="svg2"
   version="1.1"
   inkscape:version="0.48.4 r9939"
   sodipodi:docname="locked.svg">
  <defs
     id="defs4" />
  <sodipodi:namedview
     id="base"
     pagecolor="#ffffff"
     bordercolor="#666666"
     borderopacity="1.0"
     inkscape:pageopacity="0.0"
     inkscape:pageshadow="2"
     inkscape:zoom="7.9195959"
     inkscape:cx="11.823822"
     inkscape:cy="23.678227"
     inkscape:document-units="px"
     inkscape:current-layer="layer1"
     showgrid="false"
     inkscape:object-nodes="true"
     inkscape:snap-smooth-nodes="true"
     inkscape:snap-nodes="false"
     inkscape:window-width="1404"
     inkscape:window-height="780"
     inkscape:window-x="583"
     inkscape:window-y="57"
     inkscape:window-maximized="0" />
  <metadata
     id="metadata7">
    <rdf:RDF>
      <cc:Work
         rdf:about="">
        <dc:format>image/svg+xml</dc:format>
        <dc:type
           rdf:resource="http://purl.org/dc/dcmitype/StillImage" />
        <dc:title></dc:title>
      </cc:Work>
    </rdf:RDF>
  </metadata>
  <g
     inkscape:label="Layer 1"
     inkscape:groupmode="layer"
     id="layer1"
     transform="translate(0,-1002.3622)">
    <path
       style="font-size:medium;font-style:normal;font-variant:normal;font-weight:normal;font-stretch:normal;text-indent:0;text-align:start;text-decoration:none;line-height:normal;letter-spacing:normal;word-spacing:normal;text-transform:none;direction:ltr;block-progression:tb;writing-mode:lr-tb;text-anchor:start;baseline-shift:baseline;color:#000000;fill:#4d4d4d;fill-opacity:1;stroke:none;stroke-width:7.99989699999999981;marker:none;visibility:visible;display:inline;overflow:visible;enable-background:accumulate;font-family:Sans;-inkscape-font-specification:Sans"
       d="m 25,1006.4899 c -4.624731,0 -8.870908,1.2969 -12.1875,3.625 C 9.4959077,1012.443 7,1016.0801 7,1020.3337 l 0,4 8,0 0,-4 c 0,-1.1741 0.655821,-2.4588 2.40625,-3.6876 1.750429,-1.2287 4.486465,-2.1562 7.59375,-2.1562 3.107284,0 5.843321,0.9275 7.59375,2.1562 1.750429,1.2288 2.40625,2.5135 2.40625,3.6876 l 0,4 8,0 0,-4 c 0,-4.2536 -2.495908,-7.8907 -5.8125,-10.2188 -3.316592,-2.3281 -7.562769,-3.625 -12.1875,-3.625 z"
       id="path3003"
       inkscape:connector-curvature="0" />
    <g
       id="g3802"
       transform="matrix(1.6542682,0,0,1.6542682,43.996762,-675.76956)"
       style="fill:#4d4d4d">
      <path
         id="path3780-8"
         transform="matrix(0.6044969,0,0,0.6044969,-26.595906,1014.5018)"
         style="fill:#4d4d4d;stroke:none"
         d="m 24.96875,24.3125 c -2.428416,0 -4.40625,1.977784 -4.40625,4.40625 0,1.65703 0.927316,3.062994 2.28125,3.8125 l -2.21875,7.75 8.8125,0 -2.25,-7.8125 c 1.291434,-0.766008 2.1875,-2.139686 2.1875,-3.75 0,-2.428466 -1.977834,-4.40625 -4.40625,-4.40625 z m -17.9687504,-2.905037 36.0000004,0 0,23.4093 -36.0000004,0 z"
         inkscape:connector-curvature="0" />
    </g>
  </g>
</svg>
